<?xml version="1.0" standalone="no"?>
<!DOCTYPE svg PUBLIC "-//W3C//DTD SVG 20010904//EN"
 "http://www.w3.org/TR/2001/REC-SVG-20010904/DTD/svg10.dtd">
<svg version="1.0" xmlns="http://www.w3.org/2000/svg"
 width="700.000000pt" height="700.000000pt" viewBox="0 0 700.000000 700.000000"
 preserveAspectRatio="xMidYMid meet">
<metadata>
Created by potrace 1.14, written by Peter Selinger 2001-2017
</metadata>
<g transform="translate(0.000000,700.000000) scale(0.100000,-0.100000)"
fill="#000000" stroke="none">
<path d="M0 3500 l0 -3500 3500 0 3500 0 0 3500 0 3500 -3500 0 -3500 0 0
-3500z m1462 1588 c3 -7 119 -516 259 -1131 140 -614 256 -1112 258 -1105 3 7
115 515 251 1128 l246 1115 447 3 447 2 0 -1430 0 -1430 -300 0 -300 0 -2
1083 -3 1082 -245 -1080 -245 -1080 -297 -3 c-231 -2 -297 0 -300 10 -2 7
-117 500 -254 1096 l-249 1083 -3 -1096 -2 -1095 -295 0 -295 0 0 1430 0 1430
439 0 c342 0 440 -3 443 -12z m3010 -613 l3 -626 555 625 555 625 348 0 c335
1 348 0 335 -17 -7 -10 -260 -285 -563 -611 -302 -326 -551 -597 -553 -602 -2
-4 279 -372 624 -816 l626 -808 -343 -3 c-189 -1 -349 0 -354 2 -6 2 -220 285
-475 629 l-464 626 -148 -152 -147 -152 -1 -477 0 -478 -295 0 -295 0 0 1430
0 1430 295 0 295 0 2 -625z"/>
</g>
</svg>
